<svg id="Layer_1" data-name="Layer 1" xmlns="http://www.w3.org/2000/svg" viewBox="0 0 97.5 98.48"><defs><style>.cls-1{fill:#fff;}</style></defs><title>rewardArtboard 5</title><path class="cls-1" d="M48.83,9.64A40.23,40.23,0,1,0,89.05,49.87,40.28,40.28,0,0,0,48.83,9.64Zm0,76.78A36.56,36.56,0,1,1,85.38,49.87,36.59,36.59,0,0,1,48.83,86.42Z"/><path class="cls-1" d="M48.83,13.89a36,36,0,1,0,36,36A36,36,0,0,0,48.83,13.89Zm0,70a34,34,0,1,1,34-34A34,34,0,0,1,48.83,83.89Z"/><path class="cls-1" d="M92.73,56.19c.26-1.85,3.45-4.79,3.43-6.67s-3.24-4.76-3.54-6.62,1.89-5.6,1.32-7.38-4.5-3.6-5.33-5.28.15-5.91-.92-7.45S82.32,20.68,81,19.32s-1.6-5.69-3.07-6.85-5.75-.43-7.38-1.36-3.21-5-5-5.63S60,6.76,58.18,6.35s-4.52-3.79-6.4-3.92-5,2.88-6.86,3S39.48,3.17,37.66,3.6,33.73,7.82,32,8.52s-5.88-.59-7.49.36-2.51,5.19-4,6.37-5.79,1.17-7.06,2.56-.86,5.7-1.91,7.25-5.19,2.83-6,4.52.86,5.7.32,7.5-4.13,4.23-4.39,6.08S4,48.36,4,50.23s-2.69,5.26-2.4,7.11,3.92,4.23,4.48,6-1,5.81-.2,7.5,5,2.88,6.06,4.42.73,5.86,2,7.23S19.6,83.8,21.07,85s2.43,5.39,4.06,6.31,5.75-.42,7.5.25,3.94,4.33,5.74,4.83,5.37-2.1,7.24-2,5,3.19,6.91,2.93,4.51-3.59,6.33-4,5.73,1.46,7.47.76,3.25-4.76,4.86-5.71,5.9-.29,7.36-1.47,1.7-5.51,3-6.9,5.55-2,6.59-3.57,0-5.77.81-7.46,4.71-3.57,5.25-5.36S92.46,58.05,92.73,56.19ZM48.83,91.31A41.45,41.45,0,1,1,90.27,49.87,41.5,41.5,0,0,1,48.83,91.31Z"/><polygon class="cls-1" points="38.63 32.52 40.02 33.26 39.75 31.7 40.88 30.61 39.32 30.38 38.63 28.97 37.94 30.38 36.37 30.61 37.51 31.7 37.24 33.26 38.63 32.52"/><polygon class="cls-1" points="59.77 32.52 61.16 33.26 60.89 31.7 62.02 30.61 60.46 30.38 59.77 28.97 59.07 30.38 57.51 30.61 58.65 31.7 58.38 33.26 59.77 32.52"/><path class="cls-1" d="M36.53,46.08a1.56,1.56,0,0,1,.21.24,6.19,6.19,0,0,1,1.14,4,6.19,6.19,0,0,1-1.14,4,4.44,4.44,0,0,1-3.65,1.46H29.32v-.93h3.77A3.63,3.63,0,0,0,36,53.77a5.32,5.32,0,0,0,.9-3.42,5.48,5.48,0,0,0-.9-3.44,3.16,3.16,0,0,0-1.14-.85q2-.83,2-4.27A5.24,5.24,0,0,0,36,38.36a3.61,3.61,0,0,0-2.91-1.1H29.32v-.95h3.77a4.39,4.39,0,0,1,3.65,1.48,6.13,6.13,0,0,1,1.14,4,6.19,6.19,0,0,1-1.14,4A2,2,0,0,1,36.53,46.08Zm-7.21,8.19V37.87h.93v16.4Zm7-12.48a4.82,4.82,0,0,1-.77,3,3,3,0,0,1-2.46.94h-2.2v-7.9h2.2a3,3,0,0,1,2.46.93A4.68,4.68,0,0,1,36.32,41.79Zm-5.43,4.59h2.2a3,3,0,0,1,2.46.94,4.79,4.79,0,0,1,.77,3,4.88,4.88,0,0,1-.77,3,3,3,0,0,1-2.46.9h-2.2Zm.92-1.57h1.28a3,3,0,0,0,1.22-.18,1.34,1.34,0,0,0,.5-.4,3.94,3.94,0,0,0,.55-2.44,5.92,5.92,0,0,0-.17-1.63,2,2,0,0,0-.47-.89A1.54,1.54,0,0,0,34,38.9a5.29,5.29,0,0,0-.9-.08H31.81Zm0,8.53h1.28a5.29,5.29,0,0,0,.9-.07,1.47,1.47,0,0,0,.73-.38,1.9,1.9,0,0,0,.47-.9,7.87,7.87,0,0,0,0-3.3,2.25,2.25,0,0,0-.49-.9,1.33,1.33,0,0,0-.72-.38,4.88,4.88,0,0,0-.88-.08H31.81Z"/><path class="cls-1" d="M40.21,54.91h7.16v.93H39.29V36.31h8.08v.95H40.21V54.91Zm7.16-16.09H41.78v6h5.59v1H40.85v-7.9h6.52Zm0,8.51H41.78v6h5.59v.93H40.85V46.38h6.52Z"/><path class="cls-1" d="M50.73,45.82a5.22,5.22,0,0,1-1.59-3.92,7.18,7.18,0,0,1,.34-2.28,4.88,4.88,0,0,1,1-1.76,4.43,4.43,0,0,1,1.48-1.14,5,5,0,0,1,4.16.09,4.76,4.76,0,0,1,1.26,1,6.45,6.45,0,0,1,1.14,4.06v1.24h-.95V41.9a5.31,5.31,0,0,0-.93-3.45,3.69,3.69,0,0,0-5.59.19,5.3,5.3,0,0,0-.93,3.26,4.35,4.35,0,0,0,1.31,3.24,4.57,4.57,0,0,0,1.13.81c.39.2.71.35,1,.45l.45.21c.23.09.52.22.85.37a4,4,0,0,1,1,.68,3.82,3.82,0,0,1,.82,1.11,3.64,3.64,0,0,1,.35,1.66,4.45,4.45,0,0,1-.82,2.84,3.21,3.21,0,0,1-4.59.07,4.77,4.77,0,0,1-.79-3V49.05h.93V50.3a3.93,3.93,0,0,0,.6,2.46,1.57,1.57,0,0,0,.48.39,2.31,2.31,0,0,0,1.09.19A2,2,0,0,0,55,53a2.09,2.09,0,0,0,.65-.74,3,3,0,0,0,.29-1,8,8,0,0,0,.06-.91,2.91,2.91,0,0,0-.21-1.17,2.53,2.53,0,0,0-.55-.8,3.53,3.53,0,0,0-.77-.56c-.28-.15-.57-.29-.85-.41l-.48-.21c-.28-.13-.64-.3-1.07-.52A5.54,5.54,0,0,1,50.73,45.82Zm6.1.71a5.08,5.08,0,0,1,1.64,3.9,6.08,6.08,0,0,1-1.11,3.74,4.74,4.74,0,0,1-7.08.16,6.26,6.26,0,0,1-1.14-4V49.05h.93V50.3A5.43,5.43,0,0,0,51,53.74a3.42,3.42,0,0,0,2.81,1.17,3.77,3.77,0,0,0,1.59-.33,3,3,0,0,0,1.19-1,4.21,4.21,0,0,0,.69-1.39,6.14,6.14,0,0,0,.24-1.76,4.13,4.13,0,0,0-.4-1.92,4.57,4.57,0,0,0-.94-1.29,4.88,4.88,0,0,0-1.11-.78c-.38-.18-.69-.32-.92-.41l-.42-.18c-.25-.11-.54-.25-.89-.43A4.15,4.15,0,0,1,51,43.55a3.73,3.73,0,0,1-.33-1.65,6.29,6.29,0,0,1,.16-1.41,3.92,3.92,0,0,1,.53-1.3,3.11,3.11,0,0,1,1-.95,2.67,2.67,0,0,1,1.45-.37,2.79,2.79,0,0,1,2.3,1,4.93,4.93,0,0,1,.8,3.08v1.24H56V41.9a5.61,5.61,0,0,0-.22-1.78,2,2,0,0,0-.57-.91,1.39,1.39,0,0,0-.72-.33,4,4,0,0,0-.63-.06,1.78,1.78,0,0,0-1.19.37,2.47,2.47,0,0,0-.65.89,3.36,3.36,0,0,0-.28,1,6.7,6.7,0,0,0,0,.78,3,3,0,0,0,.21,1.18,2.72,2.72,0,0,0,.55.84,3.15,3.15,0,0,0,.79.61,5.88,5.88,0,0,0,.91.44l.42.19c.25.1.59.26,1,.46A4.77,4.77,0,0,1,56.83,46.53Z"/><path class="cls-1" d="M64.62,37.26H59.4v-.95H70.45v.95H64.62Zm0,18.58h-1v-17H59.4v-1h5.22Zm.61-18h5.22v1H66.18v17h-1v-18Z"/><path class="cls-1" d="M56.4,24.23a.58.58,0,0,0-.59.59.57.57,0,0,0,.19.43l-4,4.36.74-5.87h.06a.6.6,0,0,0,.6-.59.6.6,0,1,0-.81.55l-2.23,5.67-1.44-7.66a.59.59,0,1,0-.7-.58.59.59,0,0,0,.48.58l-1.44,7.66L45,23.7a.6.6,0,1,0-.22,0h.06l.74,5.87-4-4.37a.56.56,0,0,0,.18-.42.59.59,0,0,0-.59-.59.58.58,0,0,0-.59.59.59.59,0,0,0,.59.59.58.58,0,0,0,.32-.1l3.67,5.79h7.29l3.66-5.78a.56.56,0,0,0,.31.09.59.59,0,0,0,.59-.59A.58.58,0,0,0,56.4,24.23Z"/><rect class="cls-1" x="44.82" y="31.44" width="7.91" height="0.52"/><rect class="cls-1" x="45.01" y="32.22" width="7.53" height="0.74"/><path class="cls-1" d="M49.89,75.28a1.61,1.61,0,1,1-1.61-1.6A1.61,1.61,0,0,1,49.89,75.28Z"/><polygon class="cls-1" points="34.05 75.2 45.27 76.21 45.27 74.52 34.05 75.2"/><polygon class="cls-1" points="62.52 75.2 51.29 76.21 51.29 74.52 62.52 75.2"/><path class="cls-1" d="M35.19,63v-.78a3.48,3.48,0,0,0-.57-2.16,2.45,2.45,0,0,0-3.49,0,3.49,3.49,0,0,0-.59,2.16v5.28A4.34,4.34,0,0,0,30.76,69a2.34,2.34,0,0,0,.55.89,1.77,1.77,0,0,0,.75.43,2.89,2.89,0,0,0,.81.12,2.84,2.84,0,0,0,.81-.12,1.8,1.8,0,0,0,.74-.43A2.34,2.34,0,0,0,35,69a4.34,4.34,0,0,0,.22-1.47v-.8h.59v.8A3.93,3.93,0,0,1,35.07,70a3.12,3.12,0,0,1-.78.65,2.64,2.64,0,0,1-1.42.33,3.26,3.26,0,0,1-.8-.09,2.67,2.67,0,0,1-.62-.24,2.39,2.39,0,0,1-.47-.31c-.12-.12-.23-.23-.32-.34a3.91,3.91,0,0,1-.7-2.51V62.24a4,4,0,0,1,.7-2.51c.09-.11.2-.22.32-.34a2.42,2.42,0,0,1,.47-.32,3.21,3.21,0,0,1,.62-.23,3.26,3.26,0,0,1,.8-.09,2.74,2.74,0,0,1,1.42.32,3.36,3.36,0,0,1,.78.66,3.93,3.93,0,0,1,.71,2.51V63Zm-2.32-3.29c1.29,0,1.93.84,1.93,2.51V63h-.6v-.78a3.23,3.23,0,0,0-.14-1.1,1.3,1.3,0,0,0-.35-.57.82.82,0,0,0-.44-.21l-.4,0-.4,0a.85.85,0,0,0-.44.21,1.22,1.22,0,0,0-.36.57,3.23,3.23,0,0,0-.14,1.1v5.28a2.4,2.4,0,0,0,.38,1.54.72.72,0,0,0,.3.26,1.74,1.74,0,0,0,1.32,0,1,1,0,0,0,.31-.26,2.55,2.55,0,0,0,.36-1.54v-.8h.6v.8c0,1.67-.64,2.51-1.93,2.51s-1.93-.84-1.93-2.51V62.24C30.94,60.57,31.59,59.73,32.87,59.73Z"/><path class="cls-1" d="M37.35,65.07V71h-.58V58.73h.58v6.34Zm.4-6.34h.58v5.36h2.36V58.73h.6v5.94H37.75ZM41.29,71h-.6V65.65H38.33V71h-.58V65.07h3.54Zm.38-12.26h.6V71h-.6V58.73Z"/><path class="cls-1" d="M48.69,59.68a4,4,0,0,1,.7,2.51v5.29a3.87,3.87,0,0,1-.7,2.51,2.54,2.54,0,0,1-.32.35,2.13,2.13,0,0,1-.47.31,2.66,2.66,0,0,1-.62.23,2.78,2.78,0,0,1-.8.1,2.64,2.64,0,0,1-1.42-.33,2.7,2.7,0,0,1-.79-.66,3.87,3.87,0,0,1-.7-2.51V62.19a4,4,0,0,1,.7-2.51,2.85,2.85,0,0,1,.79-.65,3.41,3.41,0,0,1,2.84,0A3,3,0,0,1,48.69,59.68Zm.12,2.51a3.41,3.41,0,0,0-.58-2.14,2.42,2.42,0,0,0-3.5,0,3.41,3.41,0,0,0-.58,2.14v5.29a3.44,3.44,0,0,0,.58,2.15,2.39,2.39,0,0,0,3.5,0,3.44,3.44,0,0,0,.58-2.15ZM46.48,59.7a1.67,1.67,0,0,1,1.43.6,3,3,0,0,1,.5,1.89v5.29c0,1.68-.64,2.51-1.93,2.51s-1.93-.83-1.93-2.51V62.19a3,3,0,0,1,.5-1.89A1.67,1.67,0,0,1,46.48,59.7Zm1.35,2.49a3.5,3.5,0,0,0-.14-1.1,1.4,1.4,0,0,0-.36-.57.92.92,0,0,0-.45-.21l-.4,0-.41,0a.89.89,0,0,0-.44.21,1.4,1.4,0,0,0-.36.57,3.5,3.5,0,0,0-.14,1.1v5.29a3.67,3.67,0,0,0,.14,1.13,1.36,1.36,0,0,0,.36.56.89.89,0,0,0,.44.21l.41,0,.4,0a.92.92,0,0,0,.45-.21,1.36,1.36,0,0,0,.36-.56,3.67,3.67,0,0,0,.14-1.13Z"/><path class="cls-1" d="M51.39,58.73V71H50.8V58.73Zm.4,0h.58V71h-.58Z"/><path class="cls-1" d="M58.89,63v-.78a3.48,3.48,0,0,0-.57-2.16,2.45,2.45,0,0,0-3.49,0,3.49,3.49,0,0,0-.58,2.16v5.28A4.1,4.1,0,0,0,54.47,69a2.32,2.32,0,0,0,.54.89,1.9,1.9,0,0,0,.75.43,3,3,0,0,0,.82.12,2.82,2.82,0,0,0,.8-.12,1.84,1.84,0,0,0,.75-.43,2.32,2.32,0,0,0,.54-.89,4.1,4.1,0,0,0,.22-1.47v-.8h.6v.8A3.93,3.93,0,0,1,58.77,70a2.79,2.79,0,0,1-.78.65,2.58,2.58,0,0,1-1.41.33,3.2,3.2,0,0,1-.8-.09,2.67,2.67,0,0,1-.62-.24,2.13,2.13,0,0,1-.47-.31,2.45,2.45,0,0,1-.32-.34,3.91,3.91,0,0,1-.7-2.51V62.24a4,4,0,0,1,.7-2.51,2.45,2.45,0,0,1,.32-.34,2.15,2.15,0,0,1,.47-.32,3,3,0,0,1,1.42-.32,2.68,2.68,0,0,1,1.41.32,3,3,0,0,1,.78.66,3.93,3.93,0,0,1,.72,2.51V63Zm-2.31-3.29c1.28,0,1.93.84,1.93,2.51V63h-.6v-.78a3.5,3.5,0,0,0-.14-1.1,1.39,1.39,0,0,0-.35-.57.85.85,0,0,0-.44-.21l-.4,0-.41,0a.85.85,0,0,0-.44.21,1.4,1.4,0,0,0-.36.57,3.5,3.5,0,0,0-.14,1.1v5.28a2.46,2.46,0,0,0,.38,1.54.88.88,0,0,0,.3.26,1.44,1.44,0,0,0,.67.13,1.29,1.29,0,0,0,.65-.13.93.93,0,0,0,.31-.26,2.47,2.47,0,0,0,.37-1.54v-.8h.6v.8c0,1.67-.65,2.51-1.93,2.51s-1.93-.84-1.93-2.51V62.24C54.65,60.57,55.29,59.73,56.58,59.73Z"/><path class="cls-1" d="M61.05,70.43h4.49V71H60.47V58.75h5.07v.6H61.05V70.43Zm4.49-10.1H62v3.76h3.51v.6H61.45v-5h4.09Zm0,5.34H62v3.78h3.51V70H61.45v-5h4.09Z"/></svg>